<svg width="1920" height="1070" viewBox="0 0 1920 1070" fill="none" xmlns="http://www.w3.org/2000/svg">
<rect width="1920" height="1070" fill="#023832"/>
<g opacity="0.2" clip-path="url(#clip0_101_6)">
<g opacity="0.5">
<mask id="mask0_101_6" style="mask-type:alpha" maskUnits="userSpaceOnUse" x="2" y="0" width="1918" height="1070">
<path d="M2 1070H1920V0H2V1070Z" fill="#F8F8F8"/>
</mask>
<g mask="url(#mask0_101_6)">
<path d="M663.285 598.59C663.285 598.59 900.709 744.18 1031.06 696.954C1161.45 650.664 1259.75 300.43 1096.04 260.143C932.326 219.857 322.42 353.632 346.006 438.916C369.621 525.13 594.854 561.007 663.285 598.59Z" stroke="white" stroke-opacity="0.99" stroke-miterlimit="10"/>
<path d="M696.784 576.256C696.784 576.256 899.001 700.261 1009.36 660.266C1120.63 620.726 1204.21 322.533 1064.52 288.064C925.721 254.05 405.805 367.682 426.25 440.377C446.736 514.006 637.38 544.185 696.784 576.256Z" stroke="white" stroke-opacity="0.99" stroke-miterlimit="10"/>
<path d="M719.973 560.58C719.973 560.58 897.808 669.425 995.152 634.711C1092.5 599.997 1166.03 337.908 1044.14 307.916C922.244 277.924 465.239 377.786 483.598 442.09C500.165 505.478 667.756 532.167 719.973 560.58Z" stroke="white" stroke-opacity="0.99" stroke-miterlimit="10"/>
<path d="M756.883 535.406C756.883 535.406 894.979 619.44 970.62 592.909C1046.22 565.445 1103.56 362.892 1008.34 339.154C914.027 315.876 560.126 393.114 573.522 442.98C586.918 492.85 717.258 513.399 756.883 535.406Z" stroke="white" stroke-opacity="0.99" stroke-miterlimit="10"/>
<path d="M788.662 514.024C788.662 514.024 893.385 578.324 950.721 557.132C1008.09 536.878 1051.43 382.155 979.371 364.712C907.314 347.265 639.052 405.81 648.45 443.569C658.747 481.784 758.058 497.532 788.662 514.024Z" stroke="white" stroke-opacity="0.99" stroke-miterlimit="10"/>
<path d="M562.739 641.752C562.739 641.752 665.826 664.003 754.234 739.23C842.636 814.458 1091.71 874.382 1223.89 715.422C1356.06 556.461 1234.15 299.306 1238.7 234.75C1243.23 170.198 1090.82 171.387 913.044 199.968C735.264 228.546 306.363 303.327 198.41 337.219C90.4501 371.114 -49.3363 470.326 562.739 641.752Z" stroke="white" stroke-opacity="0.99" stroke-miterlimit="10"/>
<path d="M485.378 669.239C485.378 669.239 523.924 686.115 606.146 760.941C688.404 836.703 903.394 994.69 1079.72 928.733C1256.05 862.778 1369.98 755.9 1366.98 610.565C1364.87 465.687 1314.92 336.756 1323.98 252.52C1333.05 168.285 1331.72 88.8392 1171.19 107.88C1010.67 126.921 639.154 204.349 456.692 225.968C275.099 247.109 -59.8135 336.76 -112.708 404.177C-165.609 471.594 73.6792 597.064 186.038 608.461C297.498 619.401 435.678 637.527 485.378 669.239Z" stroke="white" stroke-opacity="0.99" stroke-miterlimit="10"/>
<path d="M442.241 693.08C442.241 693.08 508.706 747.979 581.836 838.331C654.965 928.682 873.401 1061.86 1074.26 1014.8C1275.11 967.74 1426.72 855.311 1439.66 666.8C1452.61 478.287 1355.09 372.777 1384.25 284.117C1412.52 194.999 1478.55 57.324 1357.67 53.4964C1236.79 49.6724 598.049 189.839 409.947 202.169C220.94 214.043 -165.19 255.64 -262.102 392.245C-359.015 528.853 -5.91168 635.322 159.3 646.144C324.518 656.966 388.663 674.965 442.241 693.08Z" stroke="white" stroke-opacity="0.99" stroke-miterlimit="10"/>
<path d="M422.12 719.474C422.12 719.474 467.325 748.897 491.659 830.899C515.137 913.377 744.056 1112.34 985.7 1094.29C1227.34 1076.23 1475.78 983.786 1528.6 823.82C1581.43 663.852 1390.8 384.539 1452.51 226.348C1514.22 68.1533 1557.87 -10.3804 1469.56 -15.0266C1381.22 -20.61 615.832 148.511 383.934 167.864C152.941 187.674 -276.212 255.913 -379.257 348.181C-483.164 440.926 -315.405 630.744 -7.4103 664.786C297.06 698.864 322.366 669.612 422.12 719.474Z" stroke="white" stroke-opacity="0.99" stroke-miterlimit="10"/>
<path d="M333.107 741.944C333.107 741.944 392.505 751.113 407.849 828.539C422.336 906.44 487.871 1073.53 793.87 1146.86C1099.86 1220.19 1422.24 1057.29 1511.61 953.48C1600.99 849.675 1585.64 590.892 1543.61 484.308C1500.67 377.269 1524.65 268.567 1571.2 151.204C1616.85 33.3819 1676.56 -85.5245 1510.02 -85.1151C1342.58 -85.1618 753.898 73.1586 404.588 109.679C56.1356 145.721 -235.484 147.495 -429.37 283.288C-623.25 419.081 -457.457 626.212 -255.449 676.833C-54.3051 727.931 190.096 690.215 333.107 741.944Z" stroke="white" stroke-opacity="0.99" stroke-miterlimit="10"/>
<path d="M333.107 741.944C333.107 741.944 392.505 751.113 407.849 828.539C422.336 906.44 487.871 1073.53 793.87 1146.86C1099.86 1220.19 1422.24 1057.29 1511.61 953.48C1600.99 849.675 1585.64 590.892 1543.61 484.308C1500.67 377.269 1524.65 268.567 1571.2 151.204C1616.85 33.3819 1676.56 -85.5245 1510.02 -85.1151C1342.58 -85.1618 753.898 73.1586 404.588 109.679C56.1356 145.721 -235.484 147.495 -429.37 283.288C-623.25 419.081 -457.457 626.212 -255.449 676.833C-54.3051 727.931 190.096 690.215 333.107 741.944Z" stroke="white" stroke-opacity="0.99" stroke-miterlimit="10"/>
<path d="M273.643 753.809C273.643 753.809 350.848 790.363 361.889 893.076C371.173 995.808 567.558 1196.53 979.521 1207.47C1391.49 1218.41 1641.64 988.525 1680.86 886.667C1720.08 784.81 1608.27 538.293 1585.57 407.663C1562.87 277.03 1647.91 106.896 1708.92 21.6299C1769.94 -63.6362 1650.67 -184.805 1469.29 -158.058C1287.92 -131.308 687.709 70.6057 316.492 87.7329C-54.7246 104.86 -416.945 149.47 -577.559 302.196C-738.18 454.919 -562.989 609.132 -398.832 683.536C-234.669 757.939 63.58 700.006 273.643 753.809Z" stroke="white" stroke-opacity="0.99" stroke-miterlimit="10"/>
<path d="M226.982 777.689C226.982 777.689 310.445 816.511 320.916 927.176C332.25 1037.36 541.51 1251.97 982.602 1264C1423.69 1276.02 1692.56 1029.1 1735.02 919.732C1777.47 810.361 1657.93 546.167 1633.1 406.209C1608.28 266.254 1699.85 82.9612 1765.07 -7.49329C1830.26 -98.8813 1702.71 -228.84 1508.18 -200.549C1314.54 -171.796 669.075 44.6315 272.33 62.5055C-125.277 80.8571 -513.81 128.555 -687.227 292.171C-860.638 455.784 -670.918 621.06 -495.074 701.41C-317.467 781.744 1.77844 719.842 226.982 777.689Z" stroke="white" stroke-opacity="0.99" stroke-miterlimit="10"/>
<path d="M226.982 777.689C226.982 777.689 310.445 816.511 320.916 927.176C332.25 1037.36 541.51 1251.97 982.602 1264C1423.69 1276.02 1692.56 1029.1 1735.02 919.732C1777.47 810.361 1657.93 546.167 1633.1 406.209C1608.28 266.254 1699.85 82.9612 1765.07 -7.49329C1830.26 -98.8813 1702.71 -228.84 1508.18 -200.549C1314.54 -171.796 669.075 44.6315 272.33 62.5055C-125.277 80.8571 -513.81 128.555 -687.227 292.171C-860.638 455.784 -670.918 621.06 -495.074 701.41C-317.467 781.744 1.77844 719.842 226.982 777.689Z" stroke="white" stroke-opacity="0.99" stroke-miterlimit="10"/>
<path d="M137.015 843.639C137.015 843.639 222.894 899.263 211.056 957.352C199.212 1015.44 394.789 1263.38 829.275 1309.6C1263.76 1355.82 1744.83 1194.94 1853.32 947.892C1960.9 700.391 1696.66 477.033 1820.04 250.395C1943.42 23.752 2021.4 -169.207 1724.39 -237.956C1427.39 -306.709 1262.67 -259.575 914.567 -146.41C566.468 -33.2452 311.308 -22.9904 11.9197 -16.9259C-287.462 -10.8649 -747.351 173.631 -835.195 339.589C-923.033 505.543 -771.493 686.19 -529.951 778.915C-289.35 870.248 24.2729 777.09 137.015 843.639Z" stroke="white" stroke-opacity="0.99" stroke-miterlimit="10"/>
<path d="M32.6402 924.237C32.6402 924.237 66.9125 944.43 124.123 1055.99C181.327 1167.55 477.382 1370.46 976.704 1361.75C1476.03 1353.05 2067.16 1098.88 1998.28 755.138C1929.4 411.397 1914.45 321.349 1983.66 152.324C2052.88 -16.7033 1985.62 -182.841 1693.1 -272.207C1400.58 -361.574 855.049 -181.286 542.343 -132.543C229.631 -83.8009 -393.995 -98.982 -727.265 146.303C-1061.43 391.128 -923.273 635.491 -617.07 782.2C-310.862 928.91 -101.062 862.59 32.6402 924.237Z" stroke="white" stroke-opacity="0.99" stroke-miterlimit="10"/>
<path d="M-124.366 1033.92C-124.366 1033.92 -65.0281 1064.12 125.945 1216.3C316.918 1368.47 948.437 1518.65 1610.93 1264.17C2273.43 1009.69 2065.97 637.548 2068.06 464.578C2070.15 291.608 2276.02 -79.8943 1947.09 -244.588C1618.15 -409.278 1348.26 -460.563 975.745 -363.491C603.227 -266.423 482.705 -193.128 137.806 -179.088C-207.098 -165.053 -722.159 -39.7872 -928.32 233.562C-1134.48 506.911 -1000.38 850.876 -124.366 1033.92Z" stroke="white" stroke-opacity="0.99" stroke-miterlimit="10"/>
</g>
</g>
</g>
<defs>
<clipPath id="clip0_101_6">
<rect width="1918" height="1070" fill="white" transform="translate(1920 1070) rotate(-180)"/>
</clipPath>
</defs>
</svg>
