<svg width="190" height="227" viewBox="0 0 190 227" fill="none" xmlns="http://www.w3.org/2000/svg">
<g clip-path="url(#clip0_260_15)">
<path d="M86.528 23.728C113.835 23.728 136.021 32.688 153.088 50.608C170.496 68.3573 179.2 90.288 179.2 116.4C179.2 142.512 170.496 164.528 153.088 182.448C135.851 200.197 113.664 209.072 86.528 209.072C70.144 209.072 54.9547 205.061 40.96 197.04C26.9653 189.019 16.2987 178.267 8.96 164.784L24.832 155.824C30.464 166.747 38.8267 175.451 49.92 181.936C61.0133 188.421 73.216 191.664 86.528 191.664C107.008 191.664 124.075 185.349 137.728 172.72C151.211 160.261 158.891 144.304 160.768 124.848H62.72V107.952H160.768C158.891 88.496 151.211 72.5387 137.728 60.08C124.075 47.4507 107.008 41.136 86.528 41.136C73.216 41.136 61.0133 44.3787 49.92 50.864C38.8267 57.3493 30.464 66.0533 24.832 76.976L8.96 67.76C16.64 54.2773 27.392 43.6107 41.216 35.76C55.04 27.7387 70.144 23.728 86.528 23.728Z" fill="#023832"/>
</g>
<defs>
<clipPath id="clip0_260_15">
<rect width="190" height="227" fill="white"/>
</clipPath>
</defs>
</svg>
