<svg width="210" height="41" viewBox="0 0 210 41" fill="none" xmlns="http://www.w3.org/2000/svg">
<path d="M13.872 0.671999C18.5653 0.671999 22.3787 2.212 25.312 5.292C28.304 8.34267 29.8 12.112 29.8 16.6C29.8 21.088 28.304 24.872 25.312 27.952C22.3493 31.0027 18.536 32.528 13.872 32.528C11.056 32.528 8.44533 31.8387 6.04 30.46C3.63467 29.0813 1.80133 27.2333 0.54 24.916L3.268 23.376C4.236 25.2533 5.67333 26.7493 7.58 27.864C9.48667 28.9787 11.584 29.536 13.872 29.536C17.392 29.536 20.3253 28.4507 22.672 26.28C24.9893 24.1387 26.3093 21.396 26.632 18.052H9.78V15.148H26.632C26.3093 11.804 24.9893 9.06133 22.672 6.92C20.3253 4.74933 17.392 3.664 13.872 3.664C11.584 3.664 9.48667 4.22133 7.58 5.336C5.67333 6.45067 4.236 7.94667 3.268 9.824L0.54 8.24C1.86 5.92267 3.708 4.08933 6.084 2.74C8.46 1.36133 11.056 0.671999 13.872 0.671999Z" fill="#51A37C"/>
<path d="M52.8663 10H56.2103V32H53.3063V14.444L45.6063 26.94H45.2543L37.5543 14.444V32H34.6503V10H37.9943L45.4303 22.056L52.8663 10ZM72.5292 9.472C75.8145 9.472 78.4398 10.6307 80.4052 12.948C82.4292 15.236 83.4412 17.9493 83.4412 21.088C83.4412 21.2347 83.4118 21.6893 83.3532 22.452H64.0372C64.3305 24.652 65.2692 26.412 66.8532 27.732C68.4372 29.052 70.4172 29.712 72.7932 29.712C76.1372 29.712 78.4985 28.4653 79.8772 25.972L82.4292 27.468C81.4612 29.052 80.1265 30.2987 78.4252 31.208C76.7532 32.088 74.8612 32.528 72.7492 32.528C69.2878 32.528 66.4718 31.4427 64.3012 29.272C62.1305 27.1013 61.0452 24.344 61.0452 21C61.0452 17.6853 62.1158 14.9427 64.2572 12.772C66.3985 10.572 69.1558 9.472 72.5292 9.472ZM72.5292 12.288C70.2412 12.288 68.3198 12.9627 66.7652 14.312C65.2398 15.6613 64.3305 17.436 64.0372 19.636H80.4492C80.1265 17.2893 79.2318 15.4853 77.7652 14.224C76.2398 12.9333 74.4945 12.288 72.5292 12.288ZM99.8525 9.472C102.991 9.472 105.66 10.5867 107.86 12.816C110.09 15.0453 111.204 17.7733 111.204 21C111.204 24.2267 110.09 26.9547 107.86 29.184C105.66 31.4133 102.991 32.528 99.8525 32.528C95.9511 32.528 92.9885 30.9147 90.9645 27.688V40.8H88.0605V10H90.9645V14.312C92.9885 11.0853 95.9511 9.472 99.8525 9.472ZM93.4725 27.204C95.1445 28.876 97.1978 29.712 99.6325 29.712C102.067 29.712 104.12 28.876 105.792 27.204C107.464 25.4733 108.3 23.4053 108.3 21C108.3 18.5653 107.464 16.512 105.792 14.84C104.12 13.1387 102.067 12.288 99.6325 12.288C97.1978 12.288 95.1445 13.1387 93.4725 14.84C91.8005 16.512 90.9645 18.5653 90.9645 21C90.9645 23.4053 91.8005 25.4733 93.4725 27.204ZM134.953 14.312V10H137.857V32H134.953V27.688C132.929 30.9147 129.966 32.528 126.065 32.528C122.926 32.528 120.242 31.4133 118.013 29.184C115.813 26.9547 114.713 24.2267 114.713 21C114.713 17.7733 115.813 15.0453 118.013 12.816C120.242 10.5867 122.926 9.472 126.065 9.472C129.966 9.472 132.929 11.0853 134.953 14.312ZM120.125 27.204C121.797 28.876 123.85 29.712 126.285 29.712C128.72 29.712 130.773 28.876 132.445 27.204C134.117 25.4733 134.953 23.4053 134.953 21C134.953 18.5653 134.117 16.512 132.445 14.84C130.773 13.1387 128.72 12.288 126.285 12.288C123.85 12.288 121.797 13.1387 120.125 14.84C118.453 16.512 117.617 18.5653 117.617 21C117.617 23.4053 118.453 25.4733 120.125 27.204ZM146.294 10H162.046V32H159.142V12.816H149.198V22.628C149.198 26.2947 148.494 28.8173 147.086 30.196C145.707 31.5747 143.8 32.176 141.366 32V29.272C143.067 29.448 144.314 29.0373 145.106 28.04C145.898 27.0427 146.294 25.2387 146.294 22.628V10ZM171.101 18.36H177.129C179.153 18.36 180.884 19.0053 182.321 20.296C183.759 21.5573 184.477 23.1853 184.477 25.18C184.477 27.204 183.759 28.8467 182.321 30.108C180.943 31.3693 179.212 32 177.129 32H168.197V10H171.101V18.36ZM171.101 29.184H177.129C178.391 29.184 179.447 28.8173 180.297 28.084C181.148 27.3213 181.573 26.3533 181.573 25.18C181.573 24.0067 181.148 23.0533 180.297 22.32C179.447 21.5573 178.391 21.176 177.129 21.176H171.101V29.184ZM206.486 10V29.184H209.566V37.896H206.662V32H188.71V37.896H185.806V29.184H188.49C189.986 27.1893 190.734 24.4173 190.734 20.868V10H206.486ZM192.01 29.184H203.582V12.816H193.638V20.868C193.638 24.2707 193.095 27.0427 192.01 29.184Z" fill="white"/>
</svg>
