<svg width="75" height="75" viewBox="0 0 75 75" fill="none" xmlns="http://www.w3.org/2000/svg">
<circle cx="37.5" cy="37.5" r="37.5" fill="#28A8EA"/>
<path fill-rule="evenodd" clip-rule="evenodd" d="M16.7371 36.4859C27.2207 31.2105 34.1997 27.7051 37.7043 26.0044C47.6787 21.1802 49.7754 20.3472 51.1233 20.3125C51.4228 20.3125 52.0818 20.3819 52.5311 20.7984C52.8905 21.1455 52.9804 21.5967 53.0403 21.9437C53.1002 22.2908 53.1601 23.0196 53.1002 23.575C52.561 30.1693 50.2247 46.1692 49.0266 53.5271C48.5174 56.6507 47.5289 57.6919 46.5704 57.796C44.4737 58.0043 42.8862 56.1995 40.8793 54.6724C37.7043 52.2776 35.937 50.7852 32.8519 48.4251C29.2874 45.718 31.5938 44.2256 33.6306 41.7961C34.1698 41.1714 43.3654 31.4534 43.5451 30.5858C43.5751 30.4816 43.5751 30.0652 43.3654 29.8569C43.1557 29.6487 42.8562 29.7181 42.6166 29.7875C42.2871 29.8569 37.255 33.7441 27.4603 41.4143C26.0225 42.5597 24.7345 43.115 23.5664 43.0803C22.2784 43.0456 19.8222 42.2473 17.9651 41.5532C15.7187 40.7202 13.9215 40.269 14.0712 38.8113C14.1611 38.0478 15.0597 37.2842 16.7371 36.4859Z" fill="white"/>
</svg>
