<svg width="75" height="75" viewBox="0 0 75 75" fill="none" xmlns="http://www.w3.org/2000/svg">
<circle cx="37.5" cy="37.5" r="37.5" fill="#7360F2"/>
<g clip-path="url(#clip0_451_203)">
<path d="M54.4845 20.2093C53.3335 19.1637 48.7293 15.7192 38.3701 15.6577C38.3701 15.6577 26.1934 14.9196 20.2565 20.4553C16.9246 23.8382 15.7736 28.6974 15.6524 34.7866C15.5313 40.8759 15.3495 52.2548 26.1934 55.3917V60.1278C26.1934 60.1278 26.1329 62.0346 27.3445 62.4036C28.859 62.8957 29.7071 61.4195 31.161 59.8818C31.9486 59.0207 33.039 57.7905 33.8266 56.8064C41.2174 57.4215 46.9119 56.0068 47.5783 55.7608C49.0928 55.2687 57.5135 54.1616 58.9069 42.7826C60.3608 30.9732 58.3011 23.5307 54.4845 20.2093V20.2093ZM55.7567 41.86C54.6057 51.3937 47.7601 52.0088 46.4879 52.3778C45.9427 52.5624 40.9751 53.7925 34.6747 53.4235C34.6747 53.4235 30.01 59.1437 28.4955 60.6814C28.2532 60.9274 28.0108 60.9889 27.8291 60.9889C27.5868 60.9274 27.5262 60.6199 27.5262 60.1893C27.5262 59.5743 27.5868 52.3164 27.5868 52.3164C18.4391 49.733 18.9844 40.0148 19.0449 34.9096C19.1661 29.8045 20.0748 25.6835 22.8615 22.8541C27.8897 18.241 38.2489 18.9176 38.2489 18.9176C46.9725 18.9791 51.1526 21.624 52.1219 22.5466C55.272 25.3759 56.9077 32.0803 55.7567 41.86V41.86Z" fill="white"/>
<path fill-rule="evenodd" clip-rule="evenodd" d="M38.5137 30.8178C38.5311 30.491 38.8061 30.2404 39.128 30.2581C40.3466 30.3249 41.3535 30.699 42.0691 31.4538C42.7814 32.2051 43.1281 33.253 43.1932 34.5093C43.2101 34.8361 42.9629 35.1151 42.641 35.1323C42.319 35.1495 42.0443 34.8984 42.0274 34.5716C41.9714 33.4905 41.6819 32.7546 41.228 32.2757C40.7774 31.8004 40.088 31.4977 39.065 31.4416C38.7431 31.4239 38.4963 31.1447 38.5137 30.8178Z" fill="white"/>
<path fill-rule="evenodd" clip-rule="evenodd" d="M37.7271 27.6048C37.7525 27.2785 38.0335 27.0349 38.3549 27.0606C40.7711 27.2543 42.7387 28.102 44.1917 29.7114L44.1925 29.7122C45.5744 31.249 46.2875 33.2471 46.2229 35.5417C46.2137 35.8688 45.945 36.1265 45.6228 36.1171C45.3006 36.1078 45.0468 35.835 45.056 35.5078C45.1126 33.4969 44.493 31.8045 43.3307 30.5118C42.1181 29.169 40.4508 28.4176 38.263 28.2422C37.9417 28.2165 37.7017 27.9311 37.7271 27.6048Z" fill="white"/>
<path fill-rule="evenodd" clip-rule="evenodd" d="M36.5742 24.6375C36.5742 24.3103 36.8355 24.0449 37.1579 24.0449C40.5729 24.0449 43.4476 25.2064 45.7435 27.4727C48.0561 29.7554 49.2523 32.8712 49.2523 36.755C49.2523 37.0823 48.991 37.3477 48.6686 37.3477C48.3463 37.3477 48.0849 37.0823 48.0849 36.755C48.0849 33.1346 46.9791 30.3454 44.9297 28.3225C42.8636 26.283 40.2859 25.2302 37.1579 25.2302C36.8355 25.2302 36.5742 24.9648 36.5742 24.6375Z" fill="white"/>
<path d="M39.2167 42.4754C39.2167 42.4754 40.0648 42.5369 40.4889 41.9833L41.337 40.8762C41.7611 40.3226 42.7303 39.9536 43.7602 40.5071C44.3054 40.8147 45.2747 41.4297 45.8805 41.9218C46.5469 42.4139 47.8797 43.521 47.8797 43.521C48.5461 44.0746 48.6672 44.8742 48.2432 45.7353C47.8191 46.5349 47.2133 47.273 46.4257 47.9496C45.8199 48.5031 45.2141 48.7492 44.6083 48.8722H44.366C44.1237 48.8722 43.8208 48.8107 43.5785 48.7492C42.6698 48.5031 41.1553 47.8266 38.5503 46.4119C36.9146 45.4893 35.5213 44.5051 34.3702 43.5825C33.7644 43.0905 33.0981 42.5369 32.4923 41.8603L32.2499 41.6143C31.5835 40.9377 31.0383 40.3226 30.5537 39.7075C29.645 38.5389 28.6757 37.1242 27.767 35.4635C26.3736 32.8802 25.7072 31.3425 25.4649 30.3584C25.4043 30.1123 25.3438 29.8663 25.3438 29.5588V29.3127C25.4043 28.6976 25.7072 28.0826 26.2525 27.4675C26.9188 26.7294 27.6458 26.1143 28.4334 25.6222C29.2815 25.1917 30.069 25.3147 30.6143 25.9913C30.6143 25.9913 31.7047 27.3445 32.1893 28.0211C32.6134 28.6361 33.2192 29.6203 33.5827 30.1738C34.1279 31.158 33.7644 32.2036 33.2798 32.6341L32.1893 33.4953C31.6441 33.9258 31.7047 34.7869 31.7047 34.7869C31.7047 34.7869 33.2192 40.8762 39.2167 42.4754V42.4754Z" fill="white"/>
</g>
<defs>
<clipPath id="clip0_451_203">
<rect width="43.75" height="46.875" fill="white" transform="translate(15.625 15.625)"/>
</clipPath>
</defs>
</svg>
