<svg width="75" height="75" viewBox="0 0 75 75" fill="none" xmlns="http://www.w3.org/2000/svg">
<circle cx="37.5" cy="37.5" r="37.5" fill="#26D044"/>
<path fill-rule="evenodd" clip-rule="evenodd" d="M53.2281 21.756C49.2623 17.8045 43.9883 15.6274 38.3693 15.625C26.7913 15.625 17.3682 25.0025 17.3635 36.5287C17.3621 40.2131 18.3292 43.8093 20.1675 46.9798L17.1875 57.8125L28.3228 54.9055C31.3909 56.5709 34.8452 57.4488 38.3608 57.4501H38.3695C49.9462 57.4501 59.3701 48.0714 59.375 36.545C59.377 30.9595 57.1939 25.7073 53.2281 21.756ZM38.3695 53.9196H38.3624C35.2296 53.9183 32.1569 53.0806 29.4764 51.4975L28.8388 51.1212L22.2309 52.8461L23.9947 46.4343L23.5795 45.7766C21.832 43.0104 20.9088 39.813 20.9102 36.5297C20.914 26.9497 28.746 19.1557 38.3765 19.1557C43.0396 19.1573 47.4234 20.9669 50.7196 24.2514C54.0159 27.5358 55.83 31.9012 55.8281 36.544C55.8243 46.1248 47.9923 53.9196 38.3695 53.9196ZM47.946 40.906C47.4211 40.6447 44.8409 39.381 44.3597 39.2066C43.8787 39.0326 43.5287 38.9453 43.1789 39.4683C42.829 39.9912 41.823 41.1676 41.5168 41.5164C41.2106 41.8648 40.9044 41.9086 40.3798 41.6469C39.8547 41.3857 38.1637 40.834 36.1589 39.0543C34.5987 37.6693 33.5453 35.9589 33.2391 35.4357C32.933 34.9128 33.2064 34.6302 33.4693 34.3697C33.7054 34.1356 33.9942 33.7595 34.2567 33.4545C34.5192 33.1496 34.6066 32.9316 34.7816 32.583C34.9566 32.2345 34.8691 31.9293 34.7377 31.6681C34.6066 31.4064 33.5568 28.8353 33.1195 27.7894C32.6935 26.7711 32.2608 26.9088 31.9386 26.8927C31.6328 26.8777 31.2826 26.8742 30.9326 26.8742C30.5827 26.8742 30.0142 27.005 29.533 27.5279C29.052 28.0509 27.6961 29.3146 27.6961 31.8857C27.6961 34.4568 29.5767 36.9404 29.8392 37.2892C30.1015 37.6377 33.5403 42.9137 38.8052 45.1764C40.0572 45.7147 41.035 46.0359 41.7973 46.2768C43.0548 46.6745 44.1989 46.6182 45.1031 46.4838C46.1115 46.3338 48.2083 45.2201 48.6457 44C49.083 42.7797 49.083 41.7338 48.9519 41.516C48.8207 41.2984 48.4709 41.1676 47.946 40.906Z" fill="white"/>
</svg>
